M48
; DRILL file {KiCad (5.1.2)-2} date 6/19/2019 1:42:51 AM
; FORMAT={-:-/ absolute / inch / decimal}
; #@! TF.CreationDate,2019-06-19T01:42:51+05:00
; #@! TF.GenerationSoftware,Kicad,Pcbnew,(5.1.2)-2
; #@! TF.FileFunction,NonPlated,1,2,NPTH
FMAT,2
INCH
T1C0.0670
T2C0.0689
T3C0.1200
T4C0.1570
%
G90
G05
T1
X9.16Y-5.205
X9.16Y-5.605
T2
X5.305Y-5.03
X5.705Y-5.03
X8.305Y-4.28
X8.705Y-4.28
X3.055Y-5.03
X3.455Y-5.03
X12.805Y-3.53
X13.205Y-3.53
X3.9925Y-5.78
X4.3925Y-5.78
X12.805Y-4.28
X13.205Y-4.28
X3.805Y-2.78
X4.205Y-2.78
X12.055Y-6.53
X12.455Y-6.53
X8.305Y-3.53
X8.705Y-3.53
X5.8675Y-5.78
X6.2675Y-5.78
X12.055Y-3.53
X12.455Y-3.53
X9.805Y-2.78
X10.205Y-2.78
X7.7425Y-5.03
X8.1425Y-5.03
X3.805Y-4.28
X4.205Y-4.28
X6.055Y-4.28
X6.455Y-4.28
X4.93Y-5.78
X5.33Y-5.78
X3.055Y-3.53
X3.455Y-3.53
X4.555Y-2.78
X4.955Y-2.78
X11.305Y-5.03
X11.705Y-5.03
X11.305Y-2.78
X11.705Y-2.78
X6.055Y-3.53
X6.455Y-3.53
X13.555Y-5.03
X13.955Y-5.03
X5.305Y-3.53
X5.705Y-3.53
X4.555Y-5.03
X4.955Y-5.03
X5.305Y-4.28
X5.705Y-4.28
X13.555Y-4.28
X13.955Y-4.28
X3.055Y-4.28
X3.455Y-4.28
X12.43Y-5.78
X12.83Y-5.78
X12.055Y-4.28
X12.455Y-4.28
X7.555Y-3.53
X7.955Y-3.53
X7.555Y-4.28
X7.955Y-4.28
X13.3675Y-5.78
X13.7675Y-5.78
X12.805Y-2.78
X13.205Y-2.78
X7.8362Y-5.78
X8.2363Y-5.78
X9.055Y-4.28
X9.455Y-4.28
X7.555Y-2.78
X7.955Y-2.78
X11.305Y-3.53
X11.705Y-3.53
X6.805Y-2.78
X7.205Y-2.78
X12.805Y-5.03
X13.205Y-5.03
X13.555Y-2.78
X13.955Y-2.78
X3.055Y-2.78
X3.455Y-2.78
X8.305Y-6.53
X8.705Y-6.53
X4.555Y-4.28
X4.955Y-4.28
X6.055Y-5.03
X6.455Y-5.03
X10.555Y-4.28
X10.955Y-4.28
X4.555Y-6.53
X4.955Y-6.53
X13.555Y-3.53
X13.955Y-3.53
X8.305Y-2.78
X8.705Y-2.78
X9.055Y-3.53
X9.455Y-3.53
X3.805Y-5.03
X4.205Y-5.03
X4.555Y-3.53
X4.955Y-3.53
X10.7425Y-5.78
X11.1425Y-5.78
X10.555Y-2.78
X10.955Y-2.78
X11.305Y-4.28
X11.705Y-4.28
X3.0525Y-5.78
X3.4525Y-5.78
X3.805Y-3.53
X4.205Y-3.53
X9.055Y-2.78
X9.455Y-2.78
X11.68Y-5.78
X12.08Y-5.78
X10.555Y-3.53
X10.955Y-3.53
X5.305Y-2.78
X5.705Y-2.78
X12.055Y-5.03
X12.455Y-5.03
X12.055Y-2.78
X12.455Y-2.78
X10.555Y-5.03
X10.955Y-5.03
X6.055Y-2.78
X6.455Y-2.78
T3
X7.755Y-6.255
X9.255Y-6.255
X4.005Y-6.255
X5.505Y-6.255
X8.885Y-4.935
X8.885Y-5.875
X11.505Y-6.255
X13.005Y-6.255
T4
X11.505Y-6.855
X12.255Y-6.53
X13.005Y-6.855
X8.505Y-3.53
X6.0675Y-5.78
X12.255Y-3.53
X10.005Y-2.78
X7.9425Y-5.03
X4.005Y-4.28
X6.255Y-4.28
X5.13Y-5.78
X3.255Y-3.53
X4.755Y-2.78
X11.505Y-5.03
X11.505Y-2.78
X6.255Y-3.53
X13.755Y-5.03
X5.505Y-3.53
X4.755Y-5.03
X5.505Y-4.28
X13.755Y-4.28
X3.255Y-4.28
X12.63Y-5.78
X12.255Y-4.28
X7.755Y-3.53
X7.755Y-4.28
X13.5675Y-5.78
X13.005Y-2.78
X8.0362Y-5.78
X9.255Y-4.28
X7.755Y-2.78
X11.505Y-3.53
X7.005Y-2.78
X13.005Y-5.03
X13.755Y-2.78
X3.255Y-2.78
X7.755Y-6.855
X8.505Y-6.53
X9.255Y-6.855
X4.755Y-4.28
X6.255Y-5.03
X10.755Y-4.28
X4.005Y-6.855
X4.755Y-6.53
X5.505Y-6.855
X13.755Y-3.53
X8.505Y-2.78
X9.255Y-3.53
X9.16Y-5.405
X9.485Y-4.935
X9.485Y-5.875
X4.005Y-5.03
X4.755Y-3.53
X10.9425Y-5.78
X10.755Y-2.78
X11.505Y-4.28
X3.2525Y-5.78
X4.005Y-3.53
X9.255Y-2.78
X11.88Y-5.78
X10.755Y-3.53
X5.505Y-2.78
X12.255Y-5.03
X12.255Y-2.78
X10.755Y-5.03
X6.255Y-2.78
X5.505Y-5.03
X8.505Y-4.28
X3.255Y-5.03
X13.005Y-3.53
X4.1925Y-5.78
X13.005Y-4.28
X4.005Y-2.78
T0
M30
