G04 #@! TF.GenerationSoftware,KiCad,Pcbnew,(5.1.2)-2*
G04 #@! TF.CreationDate,2019-06-19T01:42:53+05:00*
G04 #@! TF.ProjectId,rudeboard,72756465-626f-4617-9264-2e6b69636164,1*
G04 #@! TF.SameCoordinates,Original*
G04 #@! TF.FileFunction,Legend,Bot*
G04 #@! TF.FilePolarity,Positive*
%FSLAX46Y46*%
G04 Gerber Fmt 4.6, Leading zero omitted, Abs format (unit mm)*
G04 Created by KiCad (PCBNEW (5.1.2)-2) date 2019-06-19 01:42:53*
%MOMM*%
%LPD*%
G04 APERTURE LIST*
%ADD10C,4.000000*%
%ADD11C,0.381000*%
%ADD12C,0.150000*%
G04 APERTURE END LIST*
D10*
X326456166Y-140475047D02*
X322289500Y-107141714D01*
X323479976Y-116665523D02*
X321456166Y-111903619D01*
X319729976Y-109522666D01*
X316575214Y-107141714D01*
X313718071Y-107141714D01*
X290860928Y-107141714D02*
X295027595Y-140475047D01*
X303718071Y-107141714D02*
X306991880Y-133332190D01*
X306158547Y-138094095D01*
X303599023Y-140475047D01*
X299313309Y-140475047D01*
X296158547Y-138094095D01*
X294432357Y-135713142D01*
X267884738Y-140475047D02*
X261634738Y-90475047D01*
X267587119Y-138094095D02*
X270741880Y-140475047D01*
X276456166Y-140475047D01*
X279015690Y-138094095D01*
X280146642Y-135713142D01*
X280979976Y-130951238D01*
X279194261Y-116665523D01*
X277170452Y-111903619D01*
X275444261Y-109522666D01*
X272289500Y-107141714D01*
X266575214Y-107141714D01*
X264015690Y-109522666D01*
X241872833Y-138094095D02*
X245027595Y-140475047D01*
X250741880Y-140475047D01*
X253301404Y-138094095D01*
X254134738Y-133332190D01*
X251753785Y-114284571D01*
X249729976Y-109522666D01*
X246575214Y-107141714D01*
X240860928Y-107141714D01*
X238301404Y-109522666D01*
X237468071Y-114284571D01*
X238063309Y-119046476D01*
X252944261Y-123808380D01*
X227884738Y-140475047D02*
X221634738Y-90475047D01*
X224015690Y-109522666D02*
X220860928Y-107141714D01*
X215146642Y-107141714D01*
X212587119Y-109522666D01*
X211456166Y-111903619D01*
X210622833Y-116665523D01*
X212408547Y-130951238D01*
X214432357Y-135713142D01*
X216158547Y-138094095D01*
X219313309Y-140475047D01*
X225027595Y-140475047D01*
X227587119Y-138094095D01*
X196456166Y-140475047D02*
X199015690Y-138094095D01*
X200146642Y-135713142D01*
X200979976Y-130951238D01*
X199194261Y-116665523D01*
X197170452Y-111903619D01*
X195444261Y-109522666D01*
X192289500Y-107141714D01*
X188003785Y-107141714D01*
X185444261Y-109522666D01*
X184313309Y-111903619D01*
X183479976Y-116665523D01*
X185265690Y-130951238D01*
X187289500Y-135713142D01*
X189015690Y-138094095D01*
X192170452Y-140475047D01*
X196456166Y-140475047D01*
X160741880Y-140475047D02*
X157468071Y-114284571D01*
X158301404Y-109522666D01*
X160860928Y-107141714D01*
X166575214Y-107141714D01*
X169729976Y-109522666D01*
X160444261Y-138094095D02*
X163599023Y-140475047D01*
X170741880Y-140475047D01*
X173301404Y-138094095D01*
X174134738Y-133332190D01*
X173539500Y-128570285D01*
X171515690Y-123808380D01*
X168360928Y-121427428D01*
X161218071Y-121427428D01*
X158063309Y-119046476D01*
X146456166Y-140475047D02*
X142289500Y-107141714D01*
X143479976Y-116665523D02*
X141456166Y-111903619D01*
X139729976Y-109522666D01*
X136575214Y-107141714D01*
X133718071Y-107141714D01*
X115027595Y-140475047D02*
X108777595Y-90475047D01*
X114729976Y-138094095D02*
X117884738Y-140475047D01*
X123599023Y-140475047D01*
X126158547Y-138094095D01*
X127289500Y-135713142D01*
X128122833Y-130951238D01*
X126337119Y-116665523D01*
X124313309Y-111903619D01*
X122587119Y-109522666D01*
X119432357Y-107141714D01*
X113718071Y-107141714D01*
X111158547Y-109522666D01*
D11*
X247777000Y-177800000D02*
X245237000Y-177800000D01*
X245237000Y-180340000D02*
X245237000Y-177800000D01*
X263017000Y-180340000D02*
X245237000Y-180340000D01*
X263017000Y-177800000D02*
X263017000Y-180340000D01*
D12*
G36*
X259058568Y-171320640D02*
G01*
X259058568Y-171120640D01*
X258958568Y-171120640D01*
X258958568Y-171320640D01*
X259058568Y-171320640D01*
G37*
X259058568Y-171320640D02*
X259058568Y-171120640D01*
X258958568Y-171120640D01*
X258958568Y-171320640D01*
X259058568Y-171320640D01*
G36*
X258658568Y-171920640D02*
G01*
X258658568Y-171120640D01*
X258558568Y-171120640D01*
X258558568Y-171920640D01*
X258658568Y-171920640D01*
G37*
X258658568Y-171920640D02*
X258658568Y-171120640D01*
X258558568Y-171120640D01*
X258558568Y-171920640D01*
X258658568Y-171920640D01*
G36*
X259058568Y-171920640D02*
G01*
X259058568Y-171820640D01*
X258558568Y-171820640D01*
X258558568Y-171920640D01*
X259058568Y-171920640D01*
G37*
X259058568Y-171920640D02*
X259058568Y-171820640D01*
X258558568Y-171820640D01*
X258558568Y-171920640D01*
X259058568Y-171920640D01*
G36*
X258858568Y-171520640D02*
G01*
X258858568Y-171420640D01*
X258758568Y-171420640D01*
X258758568Y-171520640D01*
X258858568Y-171520640D01*
G37*
X258858568Y-171520640D02*
X258858568Y-171420640D01*
X258758568Y-171420640D01*
X258758568Y-171520640D01*
X258858568Y-171520640D01*
G36*
X259058568Y-171920640D02*
G01*
X259058568Y-171620640D01*
X258958568Y-171620640D01*
X258958568Y-171920640D01*
X259058568Y-171920640D01*
G37*
X259058568Y-171920640D02*
X259058568Y-171620640D01*
X258958568Y-171620640D01*
X258958568Y-171920640D01*
X259058568Y-171920640D01*
D11*
X247777000Y-175260000D02*
X245237000Y-175260000D01*
X247777000Y-177800000D02*
X247777000Y-175260000D01*
X263017000Y-147320000D02*
X263017000Y-177800000D01*
X245237000Y-147320000D02*
X263017000Y-147320000D01*
X245237000Y-177800000D02*
X245237000Y-147320000D01*
D12*
X252177476Y-150521904D02*
X252177476Y-149721904D01*
X251987000Y-149721904D01*
X251872714Y-149760000D01*
X251796523Y-149836190D01*
X251758428Y-149912380D01*
X251720333Y-150064761D01*
X251720333Y-150179047D01*
X251758428Y-150331428D01*
X251796523Y-150407619D01*
X251872714Y-150483809D01*
X251987000Y-150521904D01*
X252177476Y-150521904D01*
X250996523Y-149721904D02*
X251377476Y-149721904D01*
X251415571Y-150102857D01*
X251377476Y-150064761D01*
X251301285Y-150026666D01*
X251110809Y-150026666D01*
X251034619Y-150064761D01*
X250996523Y-150102857D01*
X250958428Y-150179047D01*
X250958428Y-150369523D01*
X250996523Y-150445714D01*
X251034619Y-150483809D01*
X251110809Y-150521904D01*
X251301285Y-150521904D01*
X251377476Y-150483809D01*
X251415571Y-150445714D01*
X256933666Y-150102857D02*
X257200333Y-150102857D01*
X257200333Y-150521904D02*
X257200333Y-149721904D01*
X256819380Y-149721904D01*
X256095571Y-150521904D02*
X256552714Y-150521904D01*
X256324142Y-150521904D02*
X256324142Y-149721904D01*
X256400333Y-149836190D01*
X256476523Y-149912380D01*
X256552714Y-149950476D01*
X254260333Y-150445714D02*
X254298428Y-150483809D01*
X254412714Y-150521904D01*
X254488904Y-150521904D01*
X254603190Y-150483809D01*
X254679380Y-150407619D01*
X254717476Y-150331428D01*
X254755571Y-150179047D01*
X254755571Y-150064761D01*
X254717476Y-149912380D01*
X254679380Y-149836190D01*
X254603190Y-149760000D01*
X254488904Y-149721904D01*
X254412714Y-149721904D01*
X254298428Y-149760000D01*
X254260333Y-149798095D01*
X253993666Y-149721904D02*
X253460333Y-149721904D01*
X253803190Y-150521904D01*
X260762702Y-150024991D02*
X260668421Y-149977851D01*
X260621280Y-149977851D01*
X260550570Y-150001421D01*
X260479859Y-150072132D01*
X260456289Y-150142842D01*
X260456289Y-150189983D01*
X260479859Y-150260693D01*
X260668421Y-150449255D01*
X261163396Y-149954280D01*
X260998404Y-149789289D01*
X260927693Y-149765719D01*
X260880553Y-149765719D01*
X260809842Y-149789289D01*
X260762702Y-149836429D01*
X260739132Y-149907140D01*
X260739132Y-149954280D01*
X260762702Y-150024991D01*
X260927693Y-150189983D01*
X260456289Y-149247174D02*
X260550570Y-149341455D01*
X260574140Y-149412165D01*
X260574140Y-149459306D01*
X260550570Y-149577157D01*
X260479859Y-149695008D01*
X260291297Y-149883570D01*
X260220587Y-149907140D01*
X260173446Y-149907140D01*
X260102735Y-149883570D01*
X260008455Y-149789289D01*
X259984884Y-149718578D01*
X259984884Y-149671438D01*
X260008455Y-149600727D01*
X260126306Y-149482876D01*
X260197016Y-149459306D01*
X260244157Y-149459306D01*
X260314867Y-149482876D01*
X260409148Y-149577157D01*
X260432719Y-149647867D01*
X260432719Y-149695008D01*
X260409148Y-149765719D01*
X258860333Y-149910000D02*
X259093666Y-149910000D01*
X259093666Y-150276666D02*
X259093666Y-149576666D01*
X258760333Y-149576666D01*
X258360333Y-149576666D02*
X258293666Y-149576666D01*
X258227000Y-149610000D01*
X258193666Y-149643333D01*
X258160333Y-149710000D01*
X258127000Y-149843333D01*
X258127000Y-150010000D01*
X258160333Y-150143333D01*
X258193666Y-150210000D01*
X258227000Y-150243333D01*
X258293666Y-150276666D01*
X258360333Y-150276666D01*
X258427000Y-150243333D01*
X258460333Y-150210000D01*
X258493666Y-150143333D01*
X258527000Y-150010000D01*
X258527000Y-149843333D01*
X258493666Y-149710000D01*
X258460333Y-149643333D01*
X258427000Y-149610000D01*
X258360333Y-149576666D01*
X249910333Y-149910000D02*
X249810333Y-149943333D01*
X249777000Y-149976666D01*
X249743666Y-150043333D01*
X249743666Y-150143333D01*
X249777000Y-150210000D01*
X249810333Y-150243333D01*
X249877000Y-150276666D01*
X250143666Y-150276666D01*
X250143666Y-149576666D01*
X249910333Y-149576666D01*
X249843666Y-149610000D01*
X249810333Y-149643333D01*
X249777000Y-149710000D01*
X249777000Y-149776666D01*
X249810333Y-149843333D01*
X249843666Y-149876666D01*
X249910333Y-149910000D01*
X250143666Y-149910000D01*
X249510333Y-149576666D02*
X249043666Y-149576666D01*
X249343666Y-150276666D01*
X252745604Y-176091904D02*
X252288461Y-176091904D01*
X252517032Y-176891904D02*
X252517032Y-176091904D01*
X252097985Y-176091904D02*
X251564651Y-176891904D01*
X251564651Y-176091904D02*
X252097985Y-176891904D01*
X251107508Y-176091904D02*
X251031318Y-176091904D01*
X250955128Y-176130000D01*
X250917032Y-176168095D01*
X250878937Y-176244285D01*
X250840842Y-176396666D01*
X250840842Y-176587142D01*
X250878937Y-176739523D01*
X250917032Y-176815714D01*
X250955128Y-176853809D01*
X251031318Y-176891904D01*
X251107508Y-176891904D01*
X251183699Y-176853809D01*
X251221794Y-176815714D01*
X251259889Y-176739523D01*
X251297985Y-176587142D01*
X251297985Y-176396666D01*
X251259889Y-176244285D01*
X251221794Y-176168095D01*
X251183699Y-176130000D01*
X251107508Y-176091904D01*
X249926556Y-176053809D02*
X250612270Y-177082380D01*
X249659889Y-176891904D02*
X249659889Y-176091904D01*
X249469413Y-176091904D01*
X249355128Y-176130000D01*
X249278937Y-176206190D01*
X249240842Y-176282380D01*
X249202747Y-176434761D01*
X249202747Y-176549047D01*
X249240842Y-176701428D01*
X249278937Y-176777619D01*
X249355128Y-176853809D01*
X249469413Y-176891904D01*
X249659889Y-176891904D01*
X248936080Y-176091904D02*
X248440842Y-176091904D01*
X248707508Y-176396666D01*
X248593223Y-176396666D01*
X248517032Y-176434761D01*
X248478937Y-176472857D01*
X248440842Y-176549047D01*
X248440842Y-176739523D01*
X248478937Y-176815714D01*
X248517032Y-176853809D01*
X248593223Y-176891904D01*
X248821794Y-176891904D01*
X248897985Y-176853809D01*
X248936080Y-176815714D01*
X249256476Y-174351904D02*
X249256476Y-173551904D01*
X249066000Y-173551904D01*
X248951714Y-173590000D01*
X248875523Y-173666190D01*
X248837428Y-173742380D01*
X248799333Y-173894761D01*
X248799333Y-174009047D01*
X248837428Y-174161428D01*
X248875523Y-174237619D01*
X248951714Y-174313809D01*
X249066000Y-174351904D01*
X249256476Y-174351904D01*
X248494571Y-173628095D02*
X248456476Y-173590000D01*
X248380285Y-173551904D01*
X248189809Y-173551904D01*
X248113619Y-173590000D01*
X248075523Y-173628095D01*
X248037428Y-173704285D01*
X248037428Y-173780476D01*
X248075523Y-173894761D01*
X248532666Y-174351904D01*
X248037428Y-174351904D01*
X249256476Y-164191904D02*
X249256476Y-163391904D01*
X249066000Y-163391904D01*
X248951714Y-163430000D01*
X248875523Y-163506190D01*
X248837428Y-163582380D01*
X248799333Y-163734761D01*
X248799333Y-163849047D01*
X248837428Y-164001428D01*
X248875523Y-164077619D01*
X248951714Y-164153809D01*
X249066000Y-164191904D01*
X249256476Y-164191904D01*
X248304095Y-163391904D02*
X248227904Y-163391904D01*
X248151714Y-163430000D01*
X248113619Y-163468095D01*
X248075523Y-163544285D01*
X248037428Y-163696666D01*
X248037428Y-163887142D01*
X248075523Y-164039523D01*
X248113619Y-164115714D01*
X248151714Y-164153809D01*
X248227904Y-164191904D01*
X248304095Y-164191904D01*
X248380285Y-164153809D01*
X248418380Y-164115714D01*
X248456476Y-164039523D01*
X248494571Y-163887142D01*
X248494571Y-163696666D01*
X248456476Y-163544285D01*
X248418380Y-163468095D01*
X248380285Y-163430000D01*
X248304095Y-163391904D01*
X249256476Y-166731904D02*
X249256476Y-165931904D01*
X249066000Y-165931904D01*
X248951714Y-165970000D01*
X248875523Y-166046190D01*
X248837428Y-166122380D01*
X248799333Y-166274761D01*
X248799333Y-166389047D01*
X248837428Y-166541428D01*
X248875523Y-166617619D01*
X248951714Y-166693809D01*
X249066000Y-166731904D01*
X249256476Y-166731904D01*
X248037428Y-166731904D02*
X248494571Y-166731904D01*
X248266000Y-166731904D02*
X248266000Y-165931904D01*
X248342190Y-166046190D01*
X248418380Y-166122380D01*
X248494571Y-166160476D01*
X249275523Y-168510000D02*
X249351714Y-168471904D01*
X249466000Y-168471904D01*
X249580285Y-168510000D01*
X249656476Y-168586190D01*
X249694571Y-168662380D01*
X249732666Y-168814761D01*
X249732666Y-168929047D01*
X249694571Y-169081428D01*
X249656476Y-169157619D01*
X249580285Y-169233809D01*
X249466000Y-169271904D01*
X249389809Y-169271904D01*
X249275523Y-169233809D01*
X249237428Y-169195714D01*
X249237428Y-168929047D01*
X249389809Y-168929047D01*
X248894571Y-169271904D02*
X248894571Y-168471904D01*
X248437428Y-169271904D01*
X248437428Y-168471904D01*
X248056476Y-169271904D02*
X248056476Y-168471904D01*
X247866000Y-168471904D01*
X247751714Y-168510000D01*
X247675523Y-168586190D01*
X247637428Y-168662380D01*
X247599333Y-168814761D01*
X247599333Y-168929047D01*
X247637428Y-169081428D01*
X247675523Y-169157619D01*
X247751714Y-169233809D01*
X247866000Y-169271904D01*
X248056476Y-169271904D01*
X249275523Y-171050000D02*
X249351714Y-171011904D01*
X249466000Y-171011904D01*
X249580285Y-171050000D01*
X249656476Y-171126190D01*
X249694571Y-171202380D01*
X249732666Y-171354761D01*
X249732666Y-171469047D01*
X249694571Y-171621428D01*
X249656476Y-171697619D01*
X249580285Y-171773809D01*
X249466000Y-171811904D01*
X249389809Y-171811904D01*
X249275523Y-171773809D01*
X249237428Y-171735714D01*
X249237428Y-171469047D01*
X249389809Y-171469047D01*
X248894571Y-171811904D02*
X248894571Y-171011904D01*
X248437428Y-171811904D01*
X248437428Y-171011904D01*
X248056476Y-171811904D02*
X248056476Y-171011904D01*
X247866000Y-171011904D01*
X247751714Y-171050000D01*
X247675523Y-171126190D01*
X247637428Y-171202380D01*
X247599333Y-171354761D01*
X247599333Y-171469047D01*
X247637428Y-171621428D01*
X247675523Y-171697619D01*
X247751714Y-171773809D01*
X247866000Y-171811904D01*
X248056476Y-171811904D01*
X249256476Y-161651904D02*
X249256476Y-160851904D01*
X249066000Y-160851904D01*
X248951714Y-160890000D01*
X248875523Y-160966190D01*
X248837428Y-161042380D01*
X248799333Y-161194761D01*
X248799333Y-161309047D01*
X248837428Y-161461428D01*
X248875523Y-161537619D01*
X248951714Y-161613809D01*
X249066000Y-161651904D01*
X249256476Y-161651904D01*
X248113619Y-161118571D02*
X248113619Y-161651904D01*
X248304095Y-160813809D02*
X248494571Y-161385238D01*
X247999333Y-161385238D01*
X248799333Y-159035714D02*
X248837428Y-159073809D01*
X248951714Y-159111904D01*
X249027904Y-159111904D01*
X249142190Y-159073809D01*
X249218380Y-158997619D01*
X249256476Y-158921428D01*
X249294571Y-158769047D01*
X249294571Y-158654761D01*
X249256476Y-158502380D01*
X249218380Y-158426190D01*
X249142190Y-158350000D01*
X249027904Y-158311904D01*
X248951714Y-158311904D01*
X248837428Y-158350000D01*
X248799333Y-158388095D01*
X248113619Y-158311904D02*
X248266000Y-158311904D01*
X248342190Y-158350000D01*
X248380285Y-158388095D01*
X248456476Y-158502380D01*
X248494571Y-158654761D01*
X248494571Y-158959523D01*
X248456476Y-159035714D01*
X248418380Y-159073809D01*
X248342190Y-159111904D01*
X248189809Y-159111904D01*
X248113619Y-159073809D01*
X248075523Y-159035714D01*
X248037428Y-158959523D01*
X248037428Y-158769047D01*
X248075523Y-158692857D01*
X248113619Y-158654761D01*
X248189809Y-158616666D01*
X248342190Y-158616666D01*
X248418380Y-158654761D01*
X248456476Y-158692857D01*
X248494571Y-158769047D01*
X249256476Y-156571904D02*
X249256476Y-155771904D01*
X249066000Y-155771904D01*
X248951714Y-155810000D01*
X248875523Y-155886190D01*
X248837428Y-155962380D01*
X248799333Y-156114761D01*
X248799333Y-156229047D01*
X248837428Y-156381428D01*
X248875523Y-156457619D01*
X248951714Y-156533809D01*
X249066000Y-156571904D01*
X249256476Y-156571904D01*
X248532666Y-155771904D02*
X247999333Y-155771904D01*
X248342190Y-156571904D01*
X249218380Y-153612857D02*
X248951714Y-153612857D01*
X248837428Y-154031904D02*
X249218380Y-154031904D01*
X249218380Y-153231904D01*
X248837428Y-153231904D01*
X248151714Y-153231904D02*
X248304095Y-153231904D01*
X248380285Y-153270000D01*
X248418380Y-153308095D01*
X248494571Y-153422380D01*
X248532666Y-153574761D01*
X248532666Y-153879523D01*
X248494571Y-153955714D01*
X248456476Y-153993809D01*
X248380285Y-154031904D01*
X248227904Y-154031904D01*
X248151714Y-153993809D01*
X248113619Y-153955714D01*
X248075523Y-153879523D01*
X248075523Y-153689047D01*
X248113619Y-153612857D01*
X248151714Y-153574761D01*
X248227904Y-153536666D01*
X248380285Y-153536666D01*
X248456476Y-153574761D01*
X248494571Y-153612857D01*
X248532666Y-153689047D01*
X248989809Y-151072857D02*
X248875523Y-151110952D01*
X248837428Y-151149047D01*
X248799333Y-151225238D01*
X248799333Y-151339523D01*
X248837428Y-151415714D01*
X248875523Y-151453809D01*
X248951714Y-151491904D01*
X249256476Y-151491904D01*
X249256476Y-150691904D01*
X248989809Y-150691904D01*
X248913619Y-150730000D01*
X248875523Y-150768095D01*
X248837428Y-150844285D01*
X248837428Y-150920476D01*
X248875523Y-150996666D01*
X248913619Y-151034761D01*
X248989809Y-151072857D01*
X249256476Y-151072857D01*
X248113619Y-150958571D02*
X248113619Y-151491904D01*
X248304095Y-150653809D02*
X248494571Y-151225238D01*
X247999333Y-151225238D01*
X247891991Y-149624297D02*
X247844851Y-149718578D01*
X247844851Y-149765719D01*
X247868421Y-149836429D01*
X247939132Y-149907140D01*
X248009842Y-149930710D01*
X248056983Y-149930710D01*
X248127693Y-149907140D01*
X248316255Y-149718578D01*
X247821280Y-149223603D01*
X247656289Y-149388595D01*
X247632719Y-149459306D01*
X247632719Y-149506446D01*
X247656289Y-149577157D01*
X247703429Y-149624297D01*
X247774140Y-149647867D01*
X247821280Y-149647867D01*
X247891991Y-149624297D01*
X248056983Y-149459306D01*
X247090603Y-149954280D02*
X247326306Y-149718578D01*
X247585578Y-149930710D01*
X247538438Y-149930710D01*
X247467727Y-149954280D01*
X247349876Y-150072132D01*
X247326306Y-150142842D01*
X247326306Y-150189983D01*
X247349876Y-150260693D01*
X247467727Y-150378544D01*
X247538438Y-150402115D01*
X247585578Y-150402115D01*
X247656289Y-150378544D01*
X247774140Y-150260693D01*
X247797710Y-150189983D01*
X247797710Y-150142842D01*
X259911809Y-153612857D02*
X259797523Y-153650952D01*
X259759428Y-153689047D01*
X259721333Y-153765238D01*
X259721333Y-153879523D01*
X259759428Y-153955714D01*
X259797523Y-153993809D01*
X259873714Y-154031904D01*
X260178476Y-154031904D01*
X260178476Y-153231904D01*
X259911809Y-153231904D01*
X259835619Y-153270000D01*
X259797523Y-153308095D01*
X259759428Y-153384285D01*
X259759428Y-153460476D01*
X259797523Y-153536666D01*
X259835619Y-153574761D01*
X259911809Y-153612857D01*
X260178476Y-153612857D01*
X259454666Y-153231904D02*
X258959428Y-153231904D01*
X259226095Y-153536666D01*
X259111809Y-153536666D01*
X259035619Y-153574761D01*
X258997523Y-153612857D01*
X258959428Y-153689047D01*
X258959428Y-153879523D01*
X258997523Y-153955714D01*
X259035619Y-153993809D01*
X259111809Y-154031904D01*
X259340380Y-154031904D01*
X259416571Y-153993809D01*
X259454666Y-153955714D01*
X259911809Y-156152857D02*
X259797523Y-156190952D01*
X259759428Y-156229047D01*
X259721333Y-156305238D01*
X259721333Y-156419523D01*
X259759428Y-156495714D01*
X259797523Y-156533809D01*
X259873714Y-156571904D01*
X260178476Y-156571904D01*
X260178476Y-155771904D01*
X259911809Y-155771904D01*
X259835619Y-155810000D01*
X259797523Y-155848095D01*
X259759428Y-155924285D01*
X259759428Y-156000476D01*
X259797523Y-156076666D01*
X259835619Y-156114761D01*
X259911809Y-156152857D01*
X260178476Y-156152857D01*
X258959428Y-156571904D02*
X259416571Y-156571904D01*
X259188000Y-156571904D02*
X259188000Y-155771904D01*
X259264190Y-155886190D01*
X259340380Y-155962380D01*
X259416571Y-156000476D01*
X259854666Y-166312857D02*
X260121333Y-166312857D01*
X260121333Y-166731904D02*
X260121333Y-165931904D01*
X259740380Y-165931904D01*
X259092761Y-166198571D02*
X259092761Y-166731904D01*
X259283238Y-165893809D02*
X259473714Y-166465238D01*
X258978476Y-166465238D01*
X260654666Y-168471904D02*
X260388000Y-169271904D01*
X260121333Y-168471904D01*
X259397523Y-169195714D02*
X259435619Y-169233809D01*
X259549904Y-169271904D01*
X259626095Y-169271904D01*
X259740380Y-169233809D01*
X259816571Y-169157619D01*
X259854666Y-169081428D01*
X259892761Y-168929047D01*
X259892761Y-168814761D01*
X259854666Y-168662380D01*
X259816571Y-168586190D01*
X259740380Y-168510000D01*
X259626095Y-168471904D01*
X259549904Y-168471904D01*
X259435619Y-168510000D01*
X259397523Y-168548095D01*
X258597523Y-169195714D02*
X258635619Y-169233809D01*
X258749904Y-169271904D01*
X258826095Y-169271904D01*
X258940380Y-169233809D01*
X259016571Y-169157619D01*
X259054666Y-169081428D01*
X259092761Y-168929047D01*
X259092761Y-168814761D01*
X259054666Y-168662380D01*
X259016571Y-168586190D01*
X258940380Y-168510000D01*
X258826095Y-168471904D01*
X258749904Y-168471904D01*
X258635619Y-168510000D01*
X258597523Y-168548095D01*
X260393453Y-171803809D02*
X260279167Y-171841904D01*
X260088691Y-171841904D01*
X260012500Y-171803809D01*
X259974405Y-171765714D01*
X259936310Y-171689523D01*
X259936310Y-171613333D01*
X259974405Y-171537142D01*
X260012500Y-171499047D01*
X260088691Y-171460952D01*
X260241072Y-171422857D01*
X260317262Y-171384761D01*
X260355358Y-171346666D01*
X260393453Y-171270476D01*
X260393453Y-171194285D01*
X260355358Y-171118095D01*
X260317262Y-171080000D01*
X260241072Y-171041904D01*
X260050596Y-171041904D01*
X259936310Y-171080000D01*
X259707739Y-171041904D02*
X259250596Y-171041904D01*
X259479167Y-171841904D02*
X259479167Y-171041904D01*
X260197523Y-173590000D02*
X260273714Y-173551904D01*
X260388000Y-173551904D01*
X260502285Y-173590000D01*
X260578476Y-173666190D01*
X260616571Y-173742380D01*
X260654666Y-173894761D01*
X260654666Y-174009047D01*
X260616571Y-174161428D01*
X260578476Y-174237619D01*
X260502285Y-174313809D01*
X260388000Y-174351904D01*
X260311809Y-174351904D01*
X260197523Y-174313809D01*
X260159428Y-174275714D01*
X260159428Y-174009047D01*
X260311809Y-174009047D01*
X259816571Y-174351904D02*
X259816571Y-173551904D01*
X259359428Y-174351904D01*
X259359428Y-173551904D01*
X258978476Y-174351904D02*
X258978476Y-173551904D01*
X258788000Y-173551904D01*
X258673714Y-173590000D01*
X258597523Y-173666190D01*
X258559428Y-173742380D01*
X258521333Y-173894761D01*
X258521333Y-174009047D01*
X258559428Y-174161428D01*
X258597523Y-174237619D01*
X258673714Y-174313809D01*
X258788000Y-174351904D01*
X258978476Y-174351904D01*
X259911809Y-176472857D02*
X259797523Y-176510952D01*
X259759428Y-176549047D01*
X259721333Y-176625238D01*
X259721333Y-176739523D01*
X259759428Y-176815714D01*
X259797523Y-176853809D01*
X259873714Y-176891904D01*
X260178476Y-176891904D01*
X260178476Y-176091904D01*
X259911809Y-176091904D01*
X259835619Y-176130000D01*
X259797523Y-176168095D01*
X259759428Y-176244285D01*
X259759428Y-176320476D01*
X259797523Y-176396666D01*
X259835619Y-176434761D01*
X259911809Y-176472857D01*
X260178476Y-176472857D01*
X259226095Y-176091904D02*
X259149904Y-176091904D01*
X259073714Y-176130000D01*
X259035619Y-176168095D01*
X258997523Y-176244285D01*
X258959428Y-176396666D01*
X258959428Y-176587142D01*
X258997523Y-176739523D01*
X259035619Y-176815714D01*
X259073714Y-176853809D01*
X259149904Y-176891904D01*
X259226095Y-176891904D01*
X259302285Y-176853809D01*
X259340380Y-176815714D01*
X259378476Y-176739523D01*
X259416571Y-176587142D01*
X259416571Y-176396666D01*
X259378476Y-176244285D01*
X259340380Y-176168095D01*
X259302285Y-176130000D01*
X259226095Y-176091904D01*
X259854666Y-163772857D02*
X260121333Y-163772857D01*
X260121333Y-164191904D02*
X260121333Y-163391904D01*
X259740380Y-163391904D01*
X259054666Y-163391904D02*
X259435619Y-163391904D01*
X259473714Y-163772857D01*
X259435619Y-163734761D01*
X259359428Y-163696666D01*
X259168952Y-163696666D01*
X259092761Y-163734761D01*
X259054666Y-163772857D01*
X259016571Y-163849047D01*
X259016571Y-164039523D01*
X259054666Y-164115714D01*
X259092761Y-164153809D01*
X259168952Y-164191904D01*
X259359428Y-164191904D01*
X259435619Y-164153809D01*
X259473714Y-164115714D01*
X259854666Y-161232857D02*
X260121333Y-161232857D01*
X260121333Y-161651904D02*
X260121333Y-160851904D01*
X259740380Y-160851904D01*
X259092761Y-160851904D02*
X259245142Y-160851904D01*
X259321333Y-160890000D01*
X259359428Y-160928095D01*
X259435619Y-161042380D01*
X259473714Y-161194761D01*
X259473714Y-161499523D01*
X259435619Y-161575714D01*
X259397523Y-161613809D01*
X259321333Y-161651904D01*
X259168952Y-161651904D01*
X259092761Y-161613809D01*
X259054666Y-161575714D01*
X259016571Y-161499523D01*
X259016571Y-161309047D01*
X259054666Y-161232857D01*
X259092761Y-161194761D01*
X259168952Y-161156666D01*
X259321333Y-161156666D01*
X259397523Y-161194761D01*
X259435619Y-161232857D01*
X259473714Y-161309047D01*
X259854666Y-158692857D02*
X260121333Y-158692857D01*
X260121333Y-159111904D02*
X260121333Y-158311904D01*
X259740380Y-158311904D01*
X259511809Y-158311904D02*
X258978476Y-158311904D01*
X259321333Y-159111904D01*
X259911809Y-151072857D02*
X259797523Y-151110952D01*
X259759428Y-151149047D01*
X259721333Y-151225238D01*
X259721333Y-151339523D01*
X259759428Y-151415714D01*
X259797523Y-151453809D01*
X259873714Y-151491904D01*
X260178476Y-151491904D01*
X260178476Y-150691904D01*
X259911809Y-150691904D01*
X259835619Y-150730000D01*
X259797523Y-150768095D01*
X259759428Y-150844285D01*
X259759428Y-150920476D01*
X259797523Y-150996666D01*
X259835619Y-151034761D01*
X259911809Y-151072857D01*
X260178476Y-151072857D01*
X259416571Y-150768095D02*
X259378476Y-150730000D01*
X259302285Y-150691904D01*
X259111809Y-150691904D01*
X259035619Y-150730000D01*
X258997523Y-150768095D01*
X258959428Y-150844285D01*
X258959428Y-150920476D01*
X258997523Y-151034761D01*
X259454666Y-151491904D01*
X258959428Y-151491904D01*
M02*
