M48
; DRILL file {KiCad (5.1.2)-2} date 6/19/2019 1:42:51 AM
; FORMAT={-:-/ absolute / inch / decimal}
; #@! TF.CreationDate,2019-06-19T01:42:51+05:00
; #@! TF.GenerationSoftware,Kicad,Pcbnew,(5.1.2)-2
; #@! TF.FileFunction,Plated,1,2,PTH
FMAT,2
INCH
T1C0.0157
T2C0.0315
T3C0.0409
T4C0.0430
T5C0.0579
%
G90
G05
T1
X3.895Y-4.785
X4.64Y-5.6
X6.26Y-3.06
X8.575Y-5.94
X8.575Y-6.015
X9.05Y-6.43
X9.1152Y-6.4548
X9.195Y-5.94
X9.255Y-3.07
X9.295Y-4.7165
X9.325Y-5.945
X9.365Y-5.93
X9.425Y-5.3
X9.56Y-5.575
X9.575Y-4.745
X9.61Y-3.98
X9.61Y-5.575
X9.66Y-3.935
X9.66Y-5.58
X9.795Y-3.63
X9.99Y-5.95
X10.355Y-4.69
X10.39Y-4.715
X10.505Y-3.935
X10.51Y-6.38
X10.555Y-6.105
X10.605Y-5.265
X10.605Y-5.46
X10.61Y-6.28
X10.65Y-5.46
X10.765Y-5.355
X10.765Y-5.98
X11.285Y-5.47
X11.58Y-6.43
X11.755Y-4.705
X11.755Y-4.745
X11.945Y-4.705
X11.95Y-4.745
X11.95Y-6.245
X12.225Y-5.815
X12.425Y-6.23
X12.515Y-4.69
X12.515Y-4.73
X12.605Y-4.085
X13.315Y-4.715
T2
X3.855Y-3.855
X4.155Y-3.855
X13.605Y-5.355
X13.905Y-5.355
X13.605Y-3.105
X13.905Y-3.105
X3.105Y-6.105
X3.405Y-6.105
X3.855Y-3.105
X4.155Y-3.105
X12.855Y-5.355
X13.155Y-5.355
X11.355Y-3.855
X11.655Y-3.855
X9.105Y-3.855
X9.405Y-3.855
X11.355Y-4.605
X11.655Y-4.605
X7.89Y-6.1
X8.19Y-6.1
X8.355Y-3.855
X8.655Y-3.855
X4.98Y-6.105
X5.28Y-6.105
X5.355Y-4.605
X5.655Y-4.605
X12.855Y-3.855
X13.155Y-3.855
X3.105Y-4.605
X3.405Y-4.605
X13.42Y-6.105
X13.72Y-6.105
X7.605Y-3.855
X7.905Y-3.855
X5.355Y-5.355
X5.655Y-5.355
X7.605Y-3.105
X7.905Y-3.105
X4.0425Y-6.105
X4.3425Y-6.105
X3.105Y-3.855
X3.405Y-3.855
X5.915Y-6.105
X6.215Y-6.105
X10.605Y-3.105
X10.905Y-3.105
X12.105Y-5.355
X12.405Y-5.355
X8.355Y-3.105
X8.655Y-3.105
X10.605Y-5.355
X10.905Y-5.355
X13.605Y-4.605
X13.905Y-4.605
X3.855Y-4.605
X4.155Y-4.605
X12.855Y-3.105
X13.155Y-3.105
X9.105Y-4.605
X9.405Y-4.605
X6.105Y-4.605
X6.405Y-4.605
X3.105Y-3.105
X3.405Y-3.105
X6.11Y-5.355
X6.41Y-5.355
X11.73Y-6.105
X12.03Y-6.105
X9.855Y-3.105
X10.155Y-3.105
X8.355Y-6.855
X8.655Y-6.855
X6.105Y-3.855
X6.405Y-3.855
X12.105Y-3.855
X12.405Y-3.855
X11.355Y-3.105
X11.655Y-3.105
X3.105Y-5.355
X3.405Y-5.355
X6.855Y-3.105
X7.155Y-3.105
X8.355Y-4.605
X8.655Y-4.605
X5.355Y-3.105
X5.655Y-3.105
X7.79Y-5.355
X8.09Y-5.355
X10.605Y-3.855
X10.905Y-3.855
X12.105Y-6.855
X12.405Y-6.855
X4.605Y-5.355
X4.905Y-5.355
X4.605Y-3.105
X4.905Y-3.105
X3.855Y-5.355
X4.155Y-5.355
X13.605Y-3.855
X13.905Y-3.855
X4.605Y-3.855
X4.905Y-3.855
X12.855Y-4.605
X13.155Y-4.605
X4.605Y-4.605
X4.905Y-4.605
X12.105Y-3.105
X12.405Y-3.105
X11.355Y-5.355
X11.655Y-5.355
X10.605Y-4.605
X10.905Y-4.605
X7.605Y-4.605
X7.905Y-4.605
X10.79Y-6.105
X11.09Y-6.105
X4.605Y-6.86
X4.905Y-6.86
X5.355Y-3.855
X5.655Y-3.855
X9.01Y-5.73
X9.31Y-5.73
X9.105Y-3.105
X9.405Y-3.105
X12.105Y-4.605
X12.405Y-4.605
X6.105Y-3.105
X6.405Y-3.105
X12.4775Y-6.105
X12.7775Y-6.105
T3
X8.96Y-5.355
X8.96Y-5.455
T4
X9.705Y-5.95
X9.705Y-6.05
X9.705Y-6.15
X9.705Y-6.25
X9.705Y-6.35
X9.705Y-6.45
X9.705Y-6.55
X9.705Y-6.65
X9.705Y-6.75
X9.705Y-6.85
X9.705Y-6.95
X9.714Y-5.85
X9.805Y-5.85
X9.905Y-5.85
X10.005Y-5.85
X10.105Y-5.85
X10.205Y-5.85
X10.305Y-5.85
X10.305Y-5.95
X10.305Y-6.05
X10.305Y-6.15
X10.305Y-6.25
X10.305Y-6.35
X10.305Y-6.45
X10.305Y-6.55
X10.305Y-6.65
X10.305Y-6.75
X10.305Y-6.85
X10.305Y-6.95
T5
X6.105Y-2.68
X6.1566Y-2.6225
X6.3534Y-2.6028
X6.355Y-2.58
X5.355Y-4.93
X5.4066Y-4.8725
X5.6034Y-4.8528
X5.605Y-4.83
X8.355Y-4.18
X8.4066Y-4.1225
X8.6034Y-4.1028
X8.605Y-4.08
X3.105Y-4.93
X3.1566Y-4.8725
X3.3534Y-4.8528
X3.355Y-4.83
X12.855Y-3.43
X12.9066Y-3.3725
X13.1034Y-3.3528
X13.105Y-3.33
X4.0425Y-5.68
X4.0941Y-5.6225
X4.2909Y-5.6028
X4.2925Y-5.58
X12.855Y-4.18
X12.9066Y-4.1225
X13.1034Y-4.1028
X13.105Y-4.08
X3.855Y-2.68
X3.9066Y-2.6225
X4.1034Y-2.6028
X4.105Y-2.58
X12.105Y-6.43
X12.1566Y-6.3725
X12.3534Y-6.3528
X12.355Y-6.33
X8.355Y-3.43
X8.4066Y-3.3725
X8.6034Y-3.3528
X8.605Y-3.33
X5.9175Y-5.68
X5.9691Y-5.6225
X6.1659Y-5.6028
X6.1675Y-5.58
X12.105Y-3.43
X12.1566Y-3.3725
X12.3534Y-3.3528
X12.355Y-3.33
X9.855Y-2.68
X9.9066Y-2.6225
X10.1034Y-2.6028
X10.105Y-2.58
X7.7925Y-4.93
X7.8441Y-4.8725
X8.0409Y-4.8528
X8.0425Y-4.83
X3.855Y-4.18
X3.9066Y-4.1225
X4.1034Y-4.1028
X4.105Y-4.08
X6.105Y-4.18
X6.1566Y-4.1225
X6.3534Y-4.1028
X6.355Y-4.08
X4.98Y-5.68
X5.0316Y-5.6225
X5.2284Y-5.6028
X5.23Y-5.58
X3.105Y-3.43
X3.1566Y-3.3725
X3.3534Y-3.3528
X3.355Y-3.33
X4.605Y-2.68
X4.6566Y-2.6225
X4.8534Y-2.6028
X4.855Y-2.58
X11.355Y-4.93
X11.4066Y-4.8725
X11.6034Y-4.8528
X11.605Y-4.83
X11.355Y-2.68
X11.4066Y-2.6225
X11.6034Y-2.6028
X11.605Y-2.58
X6.105Y-3.43
X6.1566Y-3.3725
X6.3534Y-3.3528
X6.355Y-3.33
X13.605Y-4.93
X13.6566Y-4.8725
X13.8534Y-4.8528
X13.855Y-4.83
X5.355Y-3.43
X5.4066Y-3.3725
X5.6034Y-3.3528
X5.605Y-3.33
X4.605Y-4.93
X4.6566Y-4.8725
X4.8534Y-4.8528
X4.855Y-4.83
X5.355Y-4.18
X5.4066Y-4.1225
X5.6034Y-4.1028
X5.605Y-4.08
X13.605Y-4.18
X13.6566Y-4.1225
X13.8534Y-4.1028
X13.855Y-4.08
X3.105Y-4.18
X3.1566Y-4.1225
X3.3534Y-4.1028
X3.355Y-4.08
X12.48Y-5.68
X12.5316Y-5.6225
X12.7284Y-5.6028
X12.73Y-5.58
X12.105Y-4.18
X12.1566Y-4.1225
X12.3534Y-4.1028
X12.355Y-4.08
X7.605Y-3.43
X7.6566Y-3.3725
X7.8534Y-3.3528
X7.855Y-3.33
X7.605Y-4.18
X7.6566Y-4.1225
X7.8534Y-4.1028
X7.855Y-4.08
X13.4175Y-5.68
X13.4691Y-5.6225
X13.6659Y-5.6028
X13.6675Y-5.58
X12.855Y-2.68
X12.9066Y-2.6225
X13.1034Y-2.6028
X13.105Y-2.58
X7.8862Y-5.68
X7.9378Y-5.6225
X8.1347Y-5.6028
X8.1363Y-5.58
X9.105Y-4.18
X9.1566Y-4.1225
X9.3534Y-4.1028
X9.355Y-4.08
X7.605Y-2.68
X7.6566Y-2.6225
X7.8534Y-2.6028
X7.855Y-2.58
X11.355Y-3.43
X11.4066Y-3.3725
X11.6034Y-3.3528
X11.605Y-3.33
X6.855Y-2.68
X6.9066Y-2.6225
X7.1034Y-2.6028
X7.105Y-2.58
X12.855Y-4.93
X12.9066Y-4.8725
X13.1034Y-4.8528
X13.105Y-4.83
X13.605Y-2.68
X13.6566Y-2.6225
X13.8534Y-2.6028
X13.855Y-2.58
X3.105Y-2.68
X3.1566Y-2.6225
X3.3534Y-2.6028
X3.355Y-2.58
X8.355Y-6.43
X8.4066Y-6.3725
X8.6034Y-6.3528
X8.605Y-6.33
X4.605Y-4.18
X4.6566Y-4.1225
X4.8534Y-4.1028
X4.855Y-4.08
X6.105Y-4.93
X6.1566Y-4.8725
X6.3534Y-4.8528
X6.355Y-4.83
X10.605Y-4.18
X10.6566Y-4.1225
X10.8534Y-4.1028
X10.855Y-4.08
X4.605Y-6.43
X4.6566Y-6.3725
X4.8534Y-6.3528
X4.855Y-6.33
X13.605Y-3.43
X13.6566Y-3.3725
X13.8534Y-3.3528
X13.855Y-3.33
X8.355Y-2.68
X8.4066Y-2.6225
X8.6034Y-2.6028
X8.605Y-2.58
X9.105Y-3.43
X9.1566Y-3.3725
X9.3534Y-3.3528
X9.355Y-3.33
X9.0616Y-5.5822
X9.2584Y-5.5625
X9.26Y-5.255
X9.3175Y-5.3066
X9.3372Y-5.5034
X9.36Y-5.505
X3.855Y-4.93
X3.9066Y-4.8725
X4.1034Y-4.8528
X4.105Y-4.83
X4.605Y-3.43
X4.6566Y-3.3725
X4.8534Y-3.3528
X4.855Y-3.33
X10.7925Y-5.68
X10.8441Y-5.6225
X11.0409Y-5.6028
X11.0425Y-5.58
X10.605Y-2.68
X10.6566Y-2.6225
X10.8534Y-2.6028
X10.855Y-2.58
X11.355Y-4.18
X11.4066Y-4.1225
X11.6034Y-4.1028
X11.605Y-4.08
X3.1025Y-5.68
X3.1541Y-5.6225
X3.3509Y-5.6028
X3.3525Y-5.58
X3.855Y-3.43
X3.9066Y-3.3725
X4.1034Y-3.3528
X4.105Y-3.33
X9.105Y-2.68
X9.1566Y-2.6225
X9.3534Y-2.6028
X9.355Y-2.58
X11.73Y-5.68
X11.7816Y-5.6225
X11.9784Y-5.6028
X11.98Y-5.58
X10.605Y-3.43
X10.6566Y-3.3725
X10.8534Y-3.3528
X10.855Y-3.33
X5.355Y-2.68
X5.4066Y-2.6225
X5.6034Y-2.6028
X5.605Y-2.58
X12.105Y-4.93
X12.1566Y-4.8725
X12.3534Y-4.8528
X12.355Y-4.83
X12.105Y-2.68
X12.1566Y-2.6225
X12.3534Y-2.6028
X12.355Y-2.58
X10.605Y-4.93
X10.6566Y-4.8725
X10.8534Y-4.8528
X10.855Y-4.83
T0
M30
